<?xml version="1.0" encoding="utf-8"?>
<COLLADA xmlns="http://www.collada.org/2005/11/COLLADASchema" version="1.4.1" xmlns:xsi="http://www.w3.org/2001/XMLSchema-instance">
  <asset>
    <contributor>
      <author>Blender User</author>
      <authoring_tool>Blender 3.0.1</authoring_tool>
    </contributor>
    <created>2026-05-07T15:21:30</created>
    <modified>2026-05-07T15:21:30</modified>
    <unit name="meter" meter="1"/>
    <up_axis>Z_UP</up_axis>
  </asset>
  <library_images/>
  <library_geometries>
    <geometry id="A_Collider_001-mesh" name="A_Collider.001">
      <mesh>
        <source id="A_Collider_001-mesh-positions">
          <float_array id="A_Collider_001-mesh-positions-array" count="72">0.0145142 -0.01106733 -0.01700043 0.0145142 -0.01106733 0.01700043 -0.01448947 -0.01106733 -0.01700043 -0.01448947 -0.01106733 0.01700043 0.0145142 0.02291643 -0.01700043 0.0145142 0.02291643 0.01700043 -0.01448947 0.02291643 -0.01700043 -0.01448947 0.02291643 0.01700043 0.01748335 0.02291643 -0.01700043 0.01748335 0.02291643 0.01700043 -0.01751416 0.02291643 -0.01700043 -0.01751416 0.02291643 0.01700043 0.01748335 0.0392462 -0.01700043 0.01748335 0.0392462 0.01700043 -0.01751416 0.0392462 -0.01700043 -0.01751416 0.0392462 0.01700043 0.02006155 0.03920406 -0.02041298 0.02006155 0.03920406 0.01349735 -0.01413208 0.03920406 -0.02041298 -0.01413208 0.03920406 0.01349735 0.02006155 0.09207385 -0.02041298 0.02006155 0.09207385 0.01349735 -0.01413214 0.09207385 -0.02041298 -0.01413214 0.09207385 0.01349735</float_array>
          <technique_common>
            <accessor source="#A_Collider_001-mesh-positions-array" count="24" stride="3">
              <param name="X" type="float"/>
              <param name="Y" type="float"/>
              <param name="Z" type="float"/>
            </accessor>
          </technique_common>
        </source>
        <source id="A_Collider_001-mesh-normals">
          <float_array id="A_Collider_001-mesh-normals-array" count="39">0 -1 0 -1 0 0 0 -1 0 1 0 0 0 0 -1 0 0 1 1 0 0 0 1 0 0 0 -1 -1 0 0 1 0 0 0 -1 0 -1 0 0</float_array>
          <technique_common>
            <accessor source="#A_Collider_001-mesh-normals-array" count="13" stride="3">
              <param name="X" type="float"/>
              <param name="Y" type="float"/>
              <param name="Z" type="float"/>
            </accessor>
          </technique_common>
        </source>
        <source id="A_Collider_001-mesh-map-0">
          <float_array id="A_Collider_001-mesh-map-0-array" count="240">0.625 0 0.375 0.25 0.375 0 0.625 0.25 0.375 0.5 0.375 0.25 0.375 0.75 0.625 0.75 0.625 0.75 0.625 0.75 0.375 1 0.375 0.75 0.375 0.5 0.125 0.75 0.125 0.5 0.875 0.5 0.625 0.75 0.625 0.5 0.625 0.5 0.375 0.5 0.375 0.5 0.625 0.5 0.375 0.5 0.375 0.5 0.375 0.75 0.625 0.75 0.625 0.75 0.625 0.5 0.625 0.5 0.625 0.5 0.375 0.5 0.625 0.75 0.375 0.75 0.625 0.75 0.625 0.75 0.625 0.75 0.625 0.5 0.625 0.75 0.625 0.5 0.375 0.5 0.375 0.5 0.375 0.5 0.375 0.75 0.375 0.75 0.375 0.75 0.375 0.5 0.375 0.75 0.375 0.75 0.625 0 0.375 0.25 0.375 0 0.625 0.25 0.375 0.5 0.375 0.25 0.625 0.75 0.375 1 0.375 0.75 0.375 0.5 0.125 0.75 0.125 0.5 0.875 0.5 0.625 0.75 0.625 0.5 0.625 0.5 0.375 0.75 0.375 0.5 0.625 0 0.625 0.25 0.375 0.25 0.625 0.25 0.625 0.5 0.375 0.5 0.375 0.75 0.375 0.75 0.625 0.75 0.625 0.75 0.625 1 0.375 1 0.375 0.5 0.375 0.75 0.125 0.75 0.875 0.5 0.875 0.75 0.625 0.75 0.625 0.5 0.625 0.5 0.375 0.5 0.625 0.5 0.625 0.5 0.375 0.5 0.375 0.75 0.375 0.75 0.625 0.75 0.375 0.5 0.625 0.5 0.625 0.75 0.625 0.5 0.625 0.75 0.625 0.75 0.375 0.5 0.375 0.5 0.375 0.75 0.625 0 0.625 0.25 0.375 0.25 0.625 0.25 0.625 0.5 0.375 0.5 0.625 0.75 0.625 1 0.375 1 0.375 0.5 0.375 0.75 0.125 0.75 0.875 0.5 0.875 0.75 0.625 0.75 0.625 0.5 0.625 0.75 0.375 0.75</float_array>
          <technique_common>
            <accessor source="#A_Collider_001-mesh-map-0-array" count="120" stride="2">
              <param name="S" type="float"/>
              <param name="T" type="float"/>
            </accessor>
          </technique_common>
        </source>
        <vertices id="A_Collider_001-mesh-vertices">
          <input semantic="POSITION" source="#A_Collider_001-mesh-positions"/>
        </vertices>
        <triangles count="40">
          <input semantic="VERTEX" source="#A_Collider_001-mesh-vertices" offset="0"/>
          <input semantic="NORMAL" source="#A_Collider_001-mesh-normals" offset="1"/>
          <input semantic="TEXCOORD" source="#A_Collider_001-mesh-map-0" offset="2" set="0"/>
          <p>1 0 0 2 0 1 0 0 2 3 1 3 6 1 4 2 1 5 4 2 6 9 2 7 5 2 8 5 3 9 0 3 10 4 3 11 6 4 12 0 4 13 2 4 14 3 5 15 5 5 16 7 5 17 7 2 18 10 2 19 6 2 20 11 1 21 14 1 22 10 1 23 8 6 24 13 6 25 9 6 26 11 5 27 7 5 28 15 5 29 14 7 30 13 7 31 12 7 32 9 5 33 13 5 34 5 5 35 7 5 36 13 5 37 15 5 38 10 8 39 14 8 40 6 8 41 8 8 42 4 8 43 12 8 44 6 8 45 12 8 46 4 8 47 17 2 48 18 2 49 16 2 50 19 9 51 22 9 52 18 9 53 21 10 54 16 10 55 20 10 56 22 8 57 16 8 58 18 8 59 19 5 60 21 5 61 23 5 62 23 7 63 20 7 64 22 7 65 1 11 66 3 11 67 2 11 68 3 12 69 7 12 70 6 12 71 4 2 72 8 2 73 9 2 74 5 6 75 1 6 76 0 6 77 6 8 78 4 8 79 0 8 80 3 5 81 1 5 82 5 5 83 7 2 84 11 2 85 10 2 86 11 1 87 15 1 88 14 1 89 8 6 90 12 6 91 13 6 92 14 7 93 15 7 94 13 7 95 7 5 96 5 5 97 13 5 98 6 8 99 14 8 100 12 8 101 17 2 102 19 2 103 18 2 104 19 9 105 23 9 106 22 9 107 21 6 108 17 6 109 16 6 110 22 8 111 20 8 112 16 8 113 19 5 114 17 5 115 21 5 116 23 7 117 21 7 118 20 7 119</p>
        </triangles>
      </mesh>
    </geometry>
  </library_geometries>
  <library_visual_scenes>
    <visual_scene id="Scene" name="Scene">
      <node id="A_Collider_001" name="A_Collider.001" type="NODE">
        <matrix sid="transform">1 0 0 0 0 1 0 0 0 0 1 0 0 0 0 1</matrix>
        <instance_geometry url="#A_Collider_001-mesh" name="A_Collider.001"/>
      </node>
    </visual_scene>
  </library_visual_scenes>
  <scene>
    <instance_visual_scene url="#Scene"/>
  </scene>
</COLLADA>