<?xml version="1.0" encoding="utf-8"?>
<COLLADA xmlns="http://www.collada.org/2005/11/COLLADASchema" version="1.4.1" xmlns:xsi="http://www.w3.org/2001/XMLSchema-instance">
  <asset>
    <contributor>
      <author>Blender User</author>
      <authoring_tool>Blender 3.0.1</authoring_tool>
    </contributor>
    <created>2026-05-07T15:23:30</created>
    <modified>2026-05-07T15:23:30</modified>
    <unit name="meter" meter="1"/>
    <up_axis>Z_UP</up_axis>
  </asset>
  <library_images/>
  <library_geometries>
    <geometry id="B_Collider_001-mesh" name="B_Collider.001">
      <mesh>
        <source id="B_Collider_001-mesh-positions">
          <float_array id="B_Collider_001-mesh-positions-array" count="159">0.005830883 -0.06609398 0.01824074 0.005830883 -0.06609398 0.04015731 0.002830564 -0.06609398 0.01824074 0.002830564 -0.06609398 0.04015731 0.005830883 0.05078989 0.01824074 0.005830883 0.05078989 0.04015731 0.002830564 0.05601334 0.01824074 0.002830564 0.05601334 0.04015731 0.005830943 -0.07649236 0.02922862 0.002830564 -0.07264268 0.03777348 0.005830943 -0.07264268 0.03777348 0.002830564 -0.07649236 0.02922862 0.002830564 -0.07264268 0.02065414 0.005830943 -0.07264268 0.02065414 0.01484483 0.06800138 0.04015731 0.01484483 0.06800138 0.01824074 0.01484483 0.05679708 0.01824074 0.01484483 0.05679708 0.04015731 0.05064302 0.06800138 0.04015731 0.05064302 0.06800138 0.01824074 0.04464322 0.05679708 0.01824074 0.05064302 -0.06609392 0.01824074 0.05064302 -0.06609392 0.04015731 0.04464322 -0.06609392 0.01824074 0.04464322 -0.06609392 0.04015731 0.04464316 0.05679714 0.04015731 0.05064302 -0.07649236 0.02922862 0.04464322 -0.07264262 0.03777348 0.05064302 -0.07264262 0.03777348 0.04464322 -0.07649236 0.02922862 0.04464322 -0.07264262 0.02065414 0.05064302 -0.07264262 0.02065414 0.0510478 0.06800138 0.01317143 0.0510478 0.06800138 0.04718887 0.01584476 0.06800138 0.01317143 0.01584476 0.06800138 0.04718887 0.0510478 0.1215152 0.01317143 0.0510478 0.1215152 0.04718887 0.01584476 0.1215152 0.01317143 0.01584476 0.1215152 0.04718887 0.03491443 0.05679708 0.01319217 0.03491443 0.05679708 0.01824074 0.002843856 0.05600231 0.01319217 0.002843856 0.05600231 0.01824074 0.04584455 0.06800144 0.01319217 0.04584455 0.06800144 0.01824074 0.01484483 0.06800144 0.01319217 0.002843856 0.05078887 0.01319217 0.01784282 0.05078768 0.01319217 0.01784282 0.05078768 0.01824074 0.002843856 0.05078887 0.01824074 0.04584366 0.05678552 0.01319217 0.04584366 0.05678552 0.01824074</float_array>
          <technique_common>
            <accessor source="#B_Collider_001-mesh-positions-array" count="53" stride="3">
              <param name="X" type="float"/>
              <param name="Y" type="float"/>
              <param name="Z" type="float"/>
            </accessor>
          </technique_common>
        </source>
        <source id="B_Collider_001-mesh-normals">
          <float_array id="B_Collider_001-mesh-normals-array" count="195">-1 0 0 0 0 1 1 0 0 0 0 -1 -1.19159e-6 0 1 -2.10618e-6 -0.9117421 0.4107632 -2.5801e-6 -0.9122722 -0.4095847 -9.18587e-7 -0.3420581 0.9396789 0 -0.3457963 -0.9383096 1 0 0 1 0 0 -1 0 0 -1 0 0 -0.7063345 0.7078782 0 0.5545694 -0.8321375 0 0 1 0 1.12515e-6 -1 0 0 0 -1 -1 0 0 1 0 0 -1.05324e-6 -0.9117408 0.4107659 0 -0.9122719 -0.4095852 0 -0.3420583 0.9396787 0 -0.3457964 -0.9383096 1 2.02779e-7 0 1 -1.76643e-6 0 0 -1 0 -1 0 0 -1 0 -5.99531e-7 -0.7070522 0.7071614 4.07626e-6 0 1 5.95073e-6 0 0 1 0 0 -1 -7.92301e-5 -1 -1.53737e-6 0.3320397 -0.9432655 0 0 0 -1 -0.001061737 -0.9999995 0 1 -7.91523e-5 0 -1 0 0 1 0 0 1.98599e-7 0 -1 -2.07002e-6 -0.911742 0.4107632 -2.02802e-6 -0.9122722 -0.4095847 0 -0.3420584 0.9396787 -7.9909e-7 -0.345796 -0.9383098 1 1.29801e-7 0 -1 0 0 0 0 1 -0.7063344 0.7078783 0 0.5545695 -0.8321375 0 1.25017e-7 -1 1.36099e-6 -1 0 -1.69976e-7 5.78785e-7 0 -1 0 -0.911742 0.4107635 -1.27221e-6 -0.912271 -0.4095873 0 -0.3420586 0.9396787 -1 1.29801e-7 0 -1 -1.38218e-7 -5.9953e-7 -0.7070512 0.7071624 0 -9.61374e-7 1 0 0 0 1 -7.97267e-5 -1 2.08924e-6 0.33204 -0.9432653 -4.77516e-7 0 0 1 1 -7.91523e-5 0</float_array>
          <technique_common>
            <accessor source="#B_Collider_001-mesh-normals-array" count="65" stride="3">
              <param name="X" type="float"/>
              <param name="Y" type="float"/>
              <param name="Z" type="float"/>
            </accessor>
          </technique_common>
        </source>
        <source id="B_Collider_001-mesh-map-0">
          <float_array id="B_Collider_001-mesh-map-0-array" count="576">0.625 0.25 0.375 0.5 0.375 0.25 0.625 0.5 0.625 0.75 0.625 0.5 0.625 0.75 0.375 1 0.375 0.75 0.125 0.5 0.375 0.75 0.125 0.75 0.875 0.5 0.625 0.75 0.625 0.5 0.875 0.75 0.875 0.5 0.875 0.75 0.125 0.75 0.125 0.5 0.125 0.5 0.875 0.75 0.875 0.5 0.875 0.75 0.125 0.75 0.125 0.5 0.125 0.5 0.875 0.75 0.125 0.75 0.125 0.75 0.125 0.75 0.125 0.75 0.875 0.75 0.125 0.5 0.875 0.5 0.125 0.5 0.875 0.5 0.875 0.5 0.125 0.5 0.625 0.5 0.625 0.75 0.625 0.5 0.625 0.5 0.375 0.5 0.375 0.5 0.375 0.75 0.625 0.75 0.625 0.75 0.375 0.5 0.375 0.75 0.375 0.75 0.625 0.5 0.375 0.5 0.375 0.5 0.375 0.75 0.625 0.75 0.625 0.75 0.375 0.5 0.375 0.75 0.375 0.75 0.625 0.25 0.375 0.5 0.375 0.25 0.625 0.75 0.375 1 0.375 0.75 0.375 0.5 0.125 0.75 0.125 0.5 0.625 0.5 0.875 0.75 0.625 0.75 0.875 0.75 0.875 0.5 0.875 0.75 0.125 0.75 0.125 0.5 0.125 0.5 0.875 0.5 0.875 0.75 0.875 0.75 0.125 0.75 0.125 0.5 0.125 0.5 0.875 0.75 0.125 0.75 0.125 0.75 0.125 0.75 0.125 0.75 0.875 0.75 0.125 0.5 0.875 0.5 0.125 0.5 0.875 0.5 0.875 0.5 0.125 0.5 0.625 0 0.375 0.25 0.375 0 0.625 0.25 0.375 0.5 0.375 0.25 0.625 0.5 0.375 0.75 0.375 0.5 0.625 0.75 0.375 1 0.375 0.75 0.375 0.5 0.125 0.75 0.125 0.5 0.875 0.5 0.625 0.75 0.625 0.5 0.375 0.25 0.625 0.25 0.625 0.25 0.375 0.25 0.625 0.5 0.375 0.5 0.625 0.5 0.375 0.75 0.375 0.5 0.625 0.75 0.875 0.75 0.875 0.75 0.375 0.5 0.125 0.75 0.125 0.5 0.625 0.5 0.875 0.75 0.625 0.75 0.625 0 0.375 0.25 0.375 0 0.625 1 0.375 1 0.375 1 0.875 0.5 0.875 0.75 0.875 0.75 0.125 0.5 0.125 0.75 0.125 0.5 0.375 1 0.625 1 0.625 1 0.125 0.75 0.375 0.75 0.125 0.75 0.625 0.75 0.375 1 0.375 0.75 0.625 0.25 0.625 0.5 0.375 0.5 0.625 0.5 0.625 0.75 0.625 0.75 0.625 0.75 0.625 1 0.375 1 0.125 0.5 0.375 0.5 0.375 0.75 0.875 0.5 0.875 0.75 0.625 0.75 0.875 0.75 0.875 0.5 0.875 0.5 0.125 0.75 0.125 0.75 0.125 0.5 0.875 0.75 0.875 0.5 0.875 0.5 0.125 0.75 0.125 0.75 0.125 0.5 0.875 0.75 0.875 0.75 0.125 0.75 0.125 0.5 0.875 0.5 0.875 0.5 0.625 0.5 0.625 0.75 0.625 0.75 0.625 0.5 0.625 0.5 0.375 0.5 0.375 0.75 0.375 0.75 0.625 0.75 0.375 0.5 0.375 0.5 0.375 0.75 0.625 0.5 0.625 0.5 0.375 0.5 0.375 0.75 0.375 0.75 0.625 0.75 0.375 0.5 0.375 0.5 0.375 0.75 0.625 0.25 0.625 0.5 0.375 0.5 0.625 0.75 0.625 1 0.375 1 0.375 0.5 0.375 0.75 0.125 0.75 0.625 0.5 0.875 0.5 0.875 0.75 0.875 0.75 0.875 0.5 0.875 0.5 0.125 0.75 0.125 0.75 0.125 0.5 0.875 0.5 0.875 0.5 0.875 0.75 0.125 0.75 0.125 0.75 0.125 0.5 0.875 0.75 0.875 0.75 0.125 0.75 0.125 0.5 0.875 0.5 0.875 0.5 0.625 0 0.625 0.25 0.375 0.25 0.625 0.25 0.625 0.5 0.375 0.5 0.625 0.5 0.625 0.75 0.375 0.75 0.625 0.75 0.625 1 0.375 1 0.375 0.5 0.375 0.75 0.125 0.75 0.875 0.5 0.875 0.75 0.625 0.75 0.375 0.25 0.375 0.25 0.625 0.25 0.375 0.25 0.625 0.25 0.625 0.5 0.625 0.5 0.625 0.75 0.375 0.75 0.375 0.5 0.375 0.75 0.125 0.75 0.625 0.5 0.875 0.5 0.875 0.75 0.625 0 0.625 0.25 0.375 0.25 0.625 1 0.625 1 0.375 1 0.875 0.5 0.875 0.5 0.875 0.75 0.125 0.5 0.125 0.75 0.125 0.75 0.375 1 0.375 1 0.625 1 0.625 0.75 0.625 1 0.375 1</float_array>
          <technique_common>
            <accessor source="#B_Collider_001-mesh-map-0-array" count="288" stride="2">
              <param name="S" type="float"/>
              <param name="T" type="float"/>
            </accessor>
          </technique_common>
        </source>
        <vertices id="B_Collider_001-mesh-vertices">
          <input semantic="POSITION" source="#B_Collider_001-mesh-positions"/>
        </vertices>
        <triangles count="96">
          <input semantic="VERTEX" source="#B_Collider_001-mesh-vertices" offset="0"/>
          <input semantic="NORMAL" source="#B_Collider_001-mesh-normals" offset="1"/>
          <input semantic="TEXCOORD" source="#B_Collider_001-mesh-map-0" offset="2" set="0"/>
          <p>3 0 0 6 0 1 2 0 2 7 1 3 17 1 4 14 1 5 5 2 6 0 2 7 4 2 8 2 3 9 4 3 10 0 3 11 3 4 12 5 4 13 7 4 14 10 5 15 11 5 16 8 5 17 13 6 18 11 6 19 12 6 20 1 7 21 9 7 22 10 7 23 0 8 24 12 8 25 2 8 26 1 9 27 13 9 28 0 9 29 8 10 30 13 10 31 10 10 32 12 11 33 3 11 34 2 11 35 11 12 36 9 12 37 12 12 38 14 1 39 25 1 40 18 1 41 7 13 42 15 13 43 6 13 44 4 14 45 17 14 46 5 14 47 6 3 48 16 3 49 4 3 50 14 15 51 19 15 52 15 15 53 16 16 54 25 16 55 17 16 56 15 17 57 20 17 58 16 17 59 24 18 60 20 18 61 23 18 62 18 19 63 21 19 64 19 19 65 20 3 66 21 3 67 23 3 68 25 1 69 22 1 70 18 1 71 28 20 72 29 20 73 26 20 74 31 21 75 29 21 76 30 21 77 24 22 78 28 22 79 22 22 80 21 23 81 30 23 82 23 23 83 22 24 84 31 24 85 21 24 86 26 25 87 31 25 88 28 25 89 30 18 90 24 18 91 23 18 92 29 18 93 27 18 94 30 18 95 33 26 96 34 26 97 32 26 98 35 27 99 38 27 100 34 27 101 39 15 102 36 15 103 38 15 104 37 10 105 32 10 106 36 10 107 38 3 108 32 3 109 34 3 110 35 1 111 37 1 112 39 1 113 42 28 114 50 28 115 43 28 116 42 29 117 15 29 118 46 29 119 15 30 120 44 30 121 46 30 122 45 31 123 41 31 124 52 31 125 46 32 126 40 32 127 42 32 128 15 1 129 41 1 130 45 1 131 49 33 132 47 33 133 48 33 134 41 34 135 48 34 136 40 34 137 43 1 138 49 1 139 41 1 140 42 35 141 48 35 142 47 35 143 40 36 144 52 36 145 41 36 146 40 3 147 44 3 148 51 3 149 45 37 150 51 37 151 44 37 152 3 38 153 7 38 154 6 38 155 7 1 156 5 1 157 17 1 158 5 39 159 1 39 160 0 39 161 2 40 162 6 40 163 4 40 164 3 1 165 1 1 166 5 1 167 10 41 168 9 41 169 11 41 170 13 42 171 8 42 172 11 42 173 1 43 174 3 43 175 9 43 176 0 44 177 13 44 178 12 44 179 1 45 180 10 45 181 13 45 182 12 46 183 9 46 184 3 46 185 14 47 186 17 47 187 25 47 188 7 48 189 14 48 190 15 48 191 4 49 192 16 49 193 17 49 194 6 3 195 15 3 196 16 3 197 14 15 198 18 15 199 19 15 200 16 50 201 20 50 202 25 50 203 15 3 204 19 3 205 20 3 206 24 51 207 25 51 208 20 51 209 18 19 210 22 19 211 21 19 212 20 52 213 19 52 214 21 52 215 25 1 216 24 1 217 22 1 218 28 53 219 27 53 220 29 53 221 31 54 222 26 54 223 29 54 224 24 55 225 27 55 226 28 55 227 21 23 228 31 23 229 30 23 230 22 10 231 28 10 232 31 10 233 30 56 234 27 56 235 24 56 236 33 26 237 35 26 238 34 26 239 35 18 240 39 18 241 38 18 242 39 15 243 37 15 244 36 15 245 37 10 246 33 10 247 32 10 248 38 3 249 36 3 250 32 3 251 35 1 252 33 1 253 37 1 254 42 57 255 47 57 256 50 57 257 42 58 258 43 58 259 15 58 260 15 59 261 45 59 262 44 59 263 46 3 264 44 3 265 40 3 266 15 60 267 43 60 268 41 60 269 49 61 270 50 61 271 47 61 272 41 62 273 49 62 274 48 62 275 43 63 276 50 63 277 49 63 278 42 3 279 40 3 280 48 3 281 40 36 282 51 36 283 52 36 284 45 64 285 52 64 286 51 64 287</p>
        </triangles>
      </mesh>
    </geometry>
  </library_geometries>
  <library_visual_scenes>
    <visual_scene id="Scene" name="Scene">
      <node id="B_Collider_001" name="B_Collider.001" type="NODE">
        <matrix sid="transform">1 0 0 0 0 1 0 0 0 0 1 0 0 0 0 1</matrix>
        <instance_geometry url="#B_Collider_001-mesh" name="B_Collider.001"/>
      </node>
    </visual_scene>
  </library_visual_scenes>
  <scene>
    <instance_visual_scene url="#Scene"/>
  </scene>
</COLLADA>