<?xml version="1.0" encoding="utf-8"?>
<COLLADA xmlns="http://www.collada.org/2005/11/COLLADASchema" version="1.4.1" xmlns:xsi="http://www.w3.org/2001/XMLSchema-instance">
  <asset>
    <contributor>
      <author>Blender User</author>
      <authoring_tool>Blender 3.0.1</authoring_tool>
    </contributor>
    <created>2026-05-07T15:24:24</created>
    <modified>2026-05-07T15:24:24</modified>
    <unit name="meter" meter="1"/>
    <up_axis>Z_UP</up_axis>
  </asset>
  <library_images/>
  <library_geometries>
    <geometry id="C_Collider_001-mesh" name="C_Collider.001">
      <mesh>
        <source id="C_Collider_001-mesh-positions">
          <float_array id="C_Collider_001-mesh-positions-array" count="114">0.002999901 0.01096779 0.004921197 0.002999901 -0.01100087 0.004918873 -0.00300008 0.01096779 0.004921197 0.002999901 -2.00317e-5 -0.005479454 -0.002999901 -0.008564889 -0.001629769 0.002999901 -0.008564889 -0.001629769 -0.002999901 -2.00319e-5 -0.005479454 -0.002999901 0.008554399 -0.001629769 0.002999901 0.008554399 -0.001629769 -0.04680007 -0.01100087 0.004918873 -0.05280005 -0.01100087 0.004918873 -0.04680007 -2.00338e-5 -0.005479454 -0.05279988 -0.008564889 -0.001629769 -0.04680007 -0.008564889 -0.001629769 -0.05279988 -2.00341e-5 -0.005479454 -0.05279988 0.008554399 -0.001629769 -0.04680007 0.008554399 -0.001629769 0.002999901 -0.01100075 0.04491883 -0.05280005 -0.01100075 0.04491889 0.002999901 0.06097382 0.03492653 -0.05280005 0.06097382 0.03492653 -0.03245711 0.1109738 0.04491889 -0.03245711 0.1109738 0.03492653 -0.01734298 0.1109738 0.03492653 -0.01734298 0.1109738 0.04491889 -0.05280005 0.04097497 0.03492653 -0.05280005 0.06097376 0.04491889 0.002999901 0.04097497 0.03492653 0.002999901 0.06097376 0.04491889 -0.05280005 0.01096779 0.004921197 0.002999901 0.04097491 0.03192442 -0.05280005 0.04097491 0.03192442 -0.00300008 -0.01100081 0.004918873 -0.04680007 0.01096779 0.004921197 -0.00300002 0.04097491 0.03192442 -0.04680001 0.04097491 0.03192442 -0.04680001 -0.01100081 0.03091889 -0.00300002 -0.01100081 0.03091889</float_array>
          <technique_common>
            <accessor source="#C_Collider_001-mesh-positions-array" count="38" stride="3">
              <param name="X" type="float"/>
              <param name="Y" type="float"/>
              <param name="Z" type="float"/>
            </accessor>
          </technique_common>
        </source>
        <source id="C_Collider_001-mesh-normals">
          <float_array id="C_Collider_001-mesh-normals-array" count="213">-2.08397e-6 -0.4107643 -0.9117416 -1.16121e-6 0.4095853 -0.9122719 -4.33905e-7 -0.9372578 -0.3486372 0 0.9383497 -0.3456878 1 0 2.28745e-7 1 0 -3.0261e-7 -1 -2.78149e-7 -2.52617e-5 -1 0 3.0261e-7 -2.08397e-6 -0.410764 -0.9117419 -1.0967e-6 0.4095857 -0.9122716 -4.33905e-7 -0.9372578 -0.3486372 0 0.9383484 -0.345691 1 0 0 -1 -4.04579e-7 -2.57238e-5 -1 0 0 -1 0 3.72814e-7 0.92627 0.3768607 4.31657e-7 1 0 -3.40476e-7 -3.12963e-7 0 -1 0 0 1 0 1 -6.91955e-7 0 0 -1 3.33807e-7 0 1 -0.92627 0.3768609 2.37914e-7 1 0 -3.26212e-7 -1 1.61869e-7 0 -1 0 0 0 1 -1.93891e-5 1 0 -4.77303e-7 -4.80638e-7 0.6689205 -0.7433339 -1 -7.85058e-7 7.90838e-7 1 0 -5.47269e-7 0 0.668922 -0.7433327 0 -1 9.32815e-7 -1 0 4.77563e-7 1 4.07626e-7 -5.73121e-7 -4.11226e-7 0.01934289 -0.9998129 0 -1 3.27847e-6 -3.7253e-6 -1 0 0 1 -1.61575e-5 0 1 -1.87636e-5 -1.09986e-6 -0.410764 -0.9117418 -2.17979e-6 0.4095858 -0.9122717 -3.77488e-6 -0.9372586 -0.348635 -4.34255e-7 0.9383498 -0.3456872 1 0 2.64635e-7 -1 0 -2.58183e-5 -1.09986e-6 -0.4107643 -0.9117417 -2.17979e-6 0.4095854 -0.9122719 0 -0.9372575 -0.3486379 -4.34255e-7 0.9383482 -0.3456918 1 0 5.05762e-7 -1 0 -2.67268e-5 0.92627 0.3768609 -6.69572e-7 -2.33189e-7 0 -1 3.47839e-7 0 1 0 1 0 -2.50355e-7 1.83156e-7 -1 0 0 1 -0.92627 0.3768606 4.31657e-7 -1 0 1.86265e-7 1 0 -3.10226e-7 0 0.6689206 -0.7433338 0 0.6689205 -0.7433341 -3.63992e-6 -1 1.7423e-6 -1 -2.54767e-7 3.13426e-7 1 0 -4.22965e-7 -3.06764e-7 0.01934295 -0.9998129 0 -1 3.01385e-6 3.63992e-6 -1 1.75836e-6 0 1 -1.59362e-5</float_array>
          <technique_common>
            <accessor source="#C_Collider_001-mesh-normals-array" count="71" stride="3">
              <param name="X" type="float"/>
              <param name="Y" type="float"/>
              <param name="Z" type="float"/>
            </accessor>
          </technique_common>
        </source>
        <source id="C_Collider_001-mesh-map-0">
          <float_array id="C_Collider_001-mesh-map-0-array" count="432">0.875 0.75 0.875 0.5 0.875 0.75 0.125 0.75 0.125 0.5 0.125 0.5 0.875 0.75 0.875 0.5 0.875 0.75 0.125 0.75 0.125 0.5 0.125 0.5 0.125 0.75 0.875 0.75 0.125 0.75 0.125 0.75 0.125 0.75 0.875 0.75 0.125 0.5 0.875 0.5 0.875 0.5 0.875 0.5 0.875 0.5 0.125 0.5 0.875 0.75 0.875 0.5 0.875 0.75 0.125 0.75 0.125 0.5 0.125 0.5 0.875 0.75 0.875 0.5 0.875 0.75 0.125 0.75 0.125 0.5 0.125 0.5 0.125 0.75 0.875 0.75 0.125 0.75 0.125 0.75 0.125 0.75 0.875 0.75 0.125 0.5 0.875 0.5 0.875 0.5 0.875 0.5 0.875 0.5 0.125 0.5 0.375 0.4305352 0.625 0.5 0.375 0.5 0.375 0.75 0.625 0.75 0.625 0.75 0.375 0.8194648 0.625 0.8194648 0.375 1 0.3055352 0.5 0.375 0.75 0.3055352 0.75 0.875 0.5 0.6944648 0.75 0.6944648 0.5 0.375 0.5 0.625 0.75 0.375 0.75 0.375 0.75 0.375 0.5 0.375 0.75 0.625 0.75 0.625 0.5 0.625 0.5 0.375 0.5 0.625 0.5 0.375 0.5 0.375 0.75 0.625 0.8194648 0.375 0.8194648 0.625 0.25 0.625 0.4305352 0.375 0.4305352 0.375 0.4305352 0.625 0.25 0.375 0.4305352 0.3055352 0.75 0.3055351 0.6666666 0.375 0.8194648 0.375 0.8194648 0.375 1 0.375 1 0.3055351 0.6666666 0.3055352 0.75 0.3055352 0.6666666 0.375 0.25 0.375 0.4305352 0.375 0.4305352 0.375 0.8194648 0.375 1 0.375 0.8194648 0.3055352 0.5 0.3055352 0.5833333 0.3055352 0.5 0.375 0.1666666 0.375 0.25 0.375 0.1666666 0.3055352 0.6666666 0.375 0.08333331 0.3055351 0.6666666 0.3055352 0.5833333 0.375 0.1666666 0.125 0.5833333 0.375 0.08333331 0.3055351 0.5833333 0.3055351 0.6666666 0.375 0.1666666 0.375 1 0.625 0.25 0.375 0 0.375 0.08333331 0.375 0.08333331 0.375 0.4305352 0.375 0.4305352 0.3055351 0.5833333 0.375 0.8194648 0.3055351 0.5833333 0.375 0.4305352 0.875 0.75 0.875 0.5 0.875 0.5 0.125 0.75 0.125 0.75 0.125 0.5 0.875 0.75 0.875 0.5 0.875 0.5 0.125 0.75 0.125 0.75 0.125 0.5 0.125 0.75 0.875 0.75 0.875 0.75 0.125 0.5 0.125 0.5 0.875 0.5 0.875 0.75 0.875 0.5 0.875 0.5 0.125 0.75 0.125 0.75 0.125 0.5 0.875 0.75 0.875 0.5 0.875 0.5 0.125 0.75 0.125 0.75 0.125 0.5 0.125 0.75 0.875 0.75 0.875 0.75 0.125 0.5 0.125 0.5 0.875 0.5 0.375 0.75 0.375 0.75 0.625 0.75 0.3055352 0.5 0.375 0.5 0.375 0.75 0.875 0.5 0.875 0.75 0.6944648 0.75 0.375 0.5 0.625 0.5 0.625 0.75 0.375 0.75 0.375 0.5 0.375 0.5 0.625 0.75 0.625 0.75 0.625 0.5 0.375 0.5 0.625 0.5 0.625 0.5 0.375 0.4305352 0.375 0.25 0.625 0.25 0.375 0.8194648 0.375 0.8194648 0.375 1 0.3055351 0.6666666 0.3055352 0.75 0.3055352 0.75 0.3055352 0.5 0.3055351 0.5833333 0.3055352 0.5833333 0.375 0.1666666 0.625 0.25 0.375 0.25 0.3055352 0.6666666 0.125 0.6666666 0.375 0.08333331 0.3055352 0.5833333 0.3055351 0.5833333 0.375 0.1666666 0.375 0.08333331 0.375 0.1666666 0.3055351 0.5833333 0.375 0.1666666 0.375 0.08333331 0.375 1 0.375 0 0.375 1 0.375 0.08333331 0.375 0.8194648 0.3055351 0.6666666 0.3055351 0.5833333</float_array>
          <technique_common>
            <accessor source="#C_Collider_001-mesh-map-0-array" count="216" stride="2">
              <param name="S" type="float"/>
              <param name="T" type="float"/>
            </accessor>
          </technique_common>
        </source>
        <vertices id="C_Collider_001-mesh-vertices">
          <input semantic="POSITION" source="#C_Collider_001-mesh-positions"/>
        </vertices>
        <triangles count="72">
          <input semantic="VERTEX" source="#C_Collider_001-mesh-vertices" offset="0"/>
          <input semantic="NORMAL" source="#C_Collider_001-mesh-normals" offset="1"/>
          <input semantic="TEXCOORD" source="#C_Collider_001-mesh-map-0" offset="2" set="0"/>
          <p>5 0 0 6 0 1 3 0 2 8 1 3 6 1 4 7 1 5 1 2 6 4 2 7 5 2 8 0 3 9 7 3 10 2 3 11 0 4 12 5 4 13 8 4 14 3 5 15 8 5 16 5 5 17 2 6 18 4 6 19 32 6 20 6 7 21 4 7 22 7 7 23 13 8 24 14 8 25 11 8 26 16 9 27 14 9 28 15 9 29 9 10 30 12 10 31 13 10 32 33 11 33 15 11 34 29 11 35 33 12 36 13 12 37 16 12 38 11 12 39 16 12 40 13 12 41 29 13 42 12 13 43 10 13 44 14 14 45 12 14 46 15 14 47 25 15 48 26 15 49 20 15 50 19 16 51 24 16 52 28 16 53 27 17 54 28 17 55 17 17 56 25 18 57 19 18 58 27 18 59 18 19 60 28 19 61 26 19 62 22 20 63 24 20 64 23 20 65 19 21 66 22 21 67 23 21 68 28 22 69 21 22 70 26 22 71 20 23 72 21 23 73 22 23 74 19 24 75 28 24 76 27 24 77 18 25 78 26 25 79 25 25 80 31 26 81 18 26 82 25 26 83 30 27 84 34 27 85 27 27 86 30 28 87 17 28 88 1 28 89 34 29 90 0 29 91 2 29 92 10 30 93 31 30 94 29 30 95 30 31 96 1 31 97 0 31 98 31 32 99 33 32 100 29 32 101 36 33 102 10 33 103 9 33 104 2 34 105 37 34 106 34 34 107 33 35 108 36 35 109 9 35 110 37 36 111 35 36 112 34 36 113 36 37 114 17 37 115 18 37 116 1 38 117 37 38 118 32 38 119 31 39 120 25 39 121 35 39 122 27 40 123 35 40 124 25 40 125 5 41 126 4 41 127 6 41 128 8 42 129 3 42 130 6 42 131 1 43 132 32 43 133 4 43 134 0 44 135 8 44 136 7 44 137 0 45 138 1 45 139 5 45 140 2 46 141 7 46 142 4 46 143 13 47 144 12 47 145 14 47 146 16 48 147 11 48 148 14 48 149 9 49 150 10 49 151 12 49 152 33 50 153 16 50 154 15 50 155 33 51 156 9 51 157 13 51 158 29 52 159 15 52 160 12 52 161 19 53 162 23 53 163 24 53 164 25 54 165 20 54 166 19 54 167 18 55 168 17 55 169 28 55 170 22 56 171 21 56 172 24 56 173 19 57 174 20 57 175 22 57 176 28 58 177 24 58 178 21 58 179 20 59 180 26 59 181 21 59 182 31 60 183 10 60 184 18 60 185 30 61 186 27 61 187 17 61 188 34 62 189 30 62 190 0 62 191 31 63 192 35 63 193 33 63 194 36 64 195 18 64 196 10 64 197 2 65 198 32 65 199 37 65 200 33 66 201 35 66 202 36 66 203 37 67 204 36 67 205 35 67 206 36 68 207 37 68 208 17 68 209 1 69 210 17 69 211 37 69 212 27 70 213 34 70 214 35 70 215</p>
        </triangles>
      </mesh>
    </geometry>
  </library_geometries>
  <library_visual_scenes>
    <visual_scene id="Scene" name="Scene">
      <node id="C_Collider_001" name="C_Collider.001" type="NODE">
        <matrix sid="transform">1 0 0 0 0 1 0 0 0 0 1 0 0 0 0 1</matrix>
        <instance_geometry url="#C_Collider_001-mesh" name="C_Collider.001"/>
      </node>
    </visual_scene>
  </library_visual_scenes>
  <scene>
    <instance_visual_scene url="#Scene"/>
  </scene>
</COLLADA>